<svg version="1.2" xmlns="http://www.w3.org/2000/svg" viewBox="0 0 128 128" width="128" height="128">
	<style>
		.s0 { fill: #ffffff } 
	</style>
	<path id="Background" class="s0" d="m18.8 82.39c0 0-6.64-1.24-6.64-10.63 0-9.39 6.08-11.29 11.29-11.29 5.21 0 0.67-28.91 10.63-40.51 6.59-7.69 15.79-14.82 30.43-14.82 14.64 0 22.63 8.57 29.35 15.48 6.44 6.63 6.21 41.83 10.37 42.17 3.45 0.29 11.41-0.41 11.61 9.78 0.16 8-5.44 9.16-8.04 9.16-2.59 0 4.37 41.18-43.17 41.18-47.54 0-45.83-40.52-45.83-40.52z"/>
</svg>